<svg width="12" height="12" viewBox="0 0 12 12" fill="none" xmlns="http://www.w3.org/2000/svg">
<g clip-path="url(#clip0_2188_747)">
<path d="M10.2427 10.2426C9.10941 11.3759 7.60266 12 6 12C4.39734 12 2.89062 11.3759 1.75734 10.2427C0.624117 9.10938 0 7.60266 0 6C0 4.39734 0.624117 2.89059 1.75734 1.75734C2.89062 0.624094 4.39734 0 6 0C7.60266 0 9.10938 0.624094 10.2426 1.75734C11.3759 2.89062 12 4.39734 12 6C12 7.60266 11.3759 9.10938 10.2427 10.2426ZM6 0.703125C3.07929 0.703125 0.703125 3.07929 0.703125 6C0.703125 8.92071 3.07929 11.2969 6 11.2969C8.92071 11.2969 11.2969 8.92071 11.2969 6C11.2969 3.07929 8.92071 0.703125 6 0.703125Z" fill="black"/>
<path d="M8.71433 5.19241C8.53639 5.2702 8.32916 5.18897 8.25141 5.01103C7.85759 4.10972 6.96772 3.52734 5.98435 3.52734C4.62092 3.52734 3.5117 4.63657 3.5117 6C3.5117 7.36343 4.62092 8.47266 5.98435 8.47266C6.96205 8.47266 7.84986 7.89495 8.24612 7.00087C8.3248 6.82336 8.53245 6.74318 8.70997 6.82191C8.88748 6.90056 8.96762 7.10824 8.88894 7.28576C8.38009 8.43391 7.23997 9.17578 5.98438 9.17578C4.23324 9.17578 2.80859 7.75113 2.80859 6C2.80859 4.24887 4.23324 2.82422 5.98438 2.82422C7.24721 2.82422 8.39 3.57209 8.89573 4.7295C8.97348 4.90741 8.89227 5.11467 8.71433 5.19241Z" fill="black"/>
</g>
<defs>
<clipPath id="clip0_2188_747">
<rect width="12" height="12" fill="white" transform="matrix(1 0 0 -1 0 12)"/>
</clipPath>
</defs>
</svg>
