<svg width="36" height="32" viewBox="0 0 36 32" fill="none" xmlns="http://www.w3.org/2000/svg">
<g id="Group">
<path id="Vector" d="M15.2826 9.56723C15.1161 9.46316 14.9248 9.40556 14.7285 9.4004C14.5322 9.39525 14.3381 9.44273 14.1664 9.53792C13.9946 9.63311 13.8515 9.77253 13.7518 9.94171C13.6522 10.1109 13.5996 10.3037 13.5996 10.5V21.83C13.5996 22.0288 13.6534 22.2239 13.7554 22.3946C13.8574 22.5652 14.0038 22.705 14.1789 22.7992C14.354 22.8933 14.5514 22.9382 14.75 22.929C14.9486 22.9199 15.141 22.8572 15.3068 22.7474L24.1068 16.9196C24.26 16.8181 24.3853 16.6798 24.4713 16.5173C24.5573 16.3548 24.6012 16.1734 24.599 15.9896C24.5968 15.8058 24.5486 15.6255 24.4588 15.4652C24.369 15.3048 24.2404 15.1695 24.0848 15.0716L15.2848 9.56723H15.2826Z" fill="#A4A4A4"/>
<path id="Vector_2" d="M5.90039 0.599976C4.4417 0.599976 3.04275 1.17944 2.0113 2.21089C0.979853 3.24234 0.400391 4.64128 0.400391 6.09998V25.9C0.400391 27.3587 0.979853 28.7576 2.0113 29.7891C3.04275 30.8205 4.4417 31.4 5.90039 31.4H30.1004C31.5591 31.4 32.958 30.8205 33.9895 29.7891C35.0209 28.7576 35.6004 27.3587 35.6004 25.9V6.09998C35.6004 4.64128 35.0209 3.24234 33.9895 2.21089C32.958 1.17944 31.5591 0.599976 30.1004 0.599976H5.90039ZM2.60039 6.09998C2.60039 5.22476 2.94807 4.38539 3.56694 3.76652C4.18581 3.14765 5.02518 2.79998 5.90039 2.79998H30.1004C30.9756 2.79998 31.815 3.14765 32.4338 3.76652C33.0527 4.38539 33.4004 5.22476 33.4004 6.09998V25.9C33.4004 26.7752 33.0527 27.6146 32.4338 28.2334C31.815 28.8523 30.9756 29.2 30.1004 29.2H5.90039C5.02518 29.2 4.18581 28.8523 3.56694 28.2334C2.94807 27.6146 2.60039 26.7752 2.60039 25.9V6.09998Z" fill="#A4A4A4"/>
</g>
</svg>
